<?xml version="1.0" standalone="no"?><!DOCTYPE svg PUBLIC "-//W3C//DTD SVG 1.1//EN" "http://www.w3.org/Graphics/SVG/1.1/DTD/svg11.dtd"><svg t="1572252900880" class="icon" viewBox="0 0 1024 1024" version="1.1" xmlns="http://www.w3.org/2000/svg" p-id="2679" xmlns:xlink="http://www.w3.org/1999/xlink" width="200" height="200"><defs><style type="text/css"></style></defs><path d="M0.0005 511.999995a511.999495 511.999495 0 1 0 1023.99899 0A511.999495 511.999495 0 1 0 0.0005 511.999995z" fill="#F8F8F8" p-id="2680"></path><path d="M983.76453 312.704192a510.207497 510.207497 0 0 0-109.738892-162.72984A510.719496 510.719496 0 0 0 511.999995 0.0005a510.207497 510.207497 0 0 0-362.025643 149.973852A510.207497 510.207497 0 0 0 0.0005 511.999995a510.719496 510.719496 0 0 0 149.973852 362.025643A510.207497 510.207497 0 0 0 511.999995 1023.99949a510.719496 510.719496 0 0 0 362.025643-149.973852A510.719496 510.719496 0 0 0 1023.99949 511.999995c0-69.119932-13.567987-136.149866-40.23496-199.295803z m-48.639952 378.026627A457.812548 457.812548 0 0 1 838.399673 834.985676C804.309707 719.316791 708.949801 629.419879 589.311919 601.940906c65.791935-29.225971 111.61589-94.505907 111.61589-170.367832 0-103.081898-84.607917-186.665816-188.927814-186.665816-104.362897 0-188.927814 83.583918-188.927814 186.665816 0 75.861925 45.823955 141.141861 111.61589 170.367832C315.051189 629.419879 219.648283 719.316791 185.600317 834.985676A457.129549 457.129549 0 0 1 52.780448 511.999995a458.111548 458.111548 0 0 1 134.484867-324.73568A458.111548 458.111548 0 0 1 511.999995 52.780448a457.471549 457.471549 0 0 1 324.69268 134.484867A457.556549 457.556549 0 0 1 971.220542 511.999995c0 61.994939-12.159988 122.15488-36.095964 178.729824z" fill="#CCCCCC" p-id="2681"></path></svg>